<svg width="53" height="28" viewBox="0 0 53 28" fill="none" xmlns="http://www.w3.org/2000/svg">
<g clip-path="url(#clip0_85_18859)">
<path d="M11.7787 18.7617C11.5606 18.6969 10.7544 18.4314 9.66258 18.4314C6.83835 18.4314 4.76514 20.4499 4.76514 23.2029C4.76514 26.1732 7.05373 27.9772 9.66258 27.9772C10.6991 27.9772 11.4903 27.7311 11.7787 27.649V25.1745C11.6789 25.23 10.9203 25.6637 9.82895 25.6637C8.28281 25.6637 7.28553 24.573 7.28553 23.2029C7.28553 21.7912 8.32593 20.7441 9.82895 20.7441C10.9389 20.7441 11.6853 21.1874 11.7787 21.2363" fill="#00BCEB"/>
<path d="M14.9543 27.6498H17.2753V18.4314H14.9543V27.6498Z" fill="#00BCEB"/>
<path d="M23.8779 18.4314C25.0077 18.4314 26.0709 18.7062 26.14 18.7252V20.693C26.1055 20.6822 25.1285 20.4118 24.3258 20.4118C23.3954 20.4118 22.8902 20.724 22.8902 21.1673C22.8902 21.7285 23.5721 21.9243 23.9541 22.0451L24.5944 22.2495C26.1006 22.7294 26.7867 23.7634 26.7867 24.8866C26.7867 27.2023 24.7551 27.9801 22.9791 27.9801C21.7444 27.9801 20.5886 27.7527 20.4744 27.7284V25.607C20.6793 25.6588 21.6518 25.9496 22.6662 25.9496C23.8206 25.9496 24.3516 25.6114 24.3516 25.089C24.3516 24.6219 23.8921 24.3522 23.3165 24.1707C23.1759 24.124 22.9647 24.0577 22.8213 24.0103C21.5283 23.6008 20.4509 22.8397 20.4509 21.3134C20.4509 19.5892 21.7388 18.4314 23.8779 18.4314Z" fill="#00BCEB"/>
<path d="M36.9758 18.7617C36.7577 18.6969 35.9516 18.4314 34.8597 18.4314C32.0355 18.4314 29.9622 20.4499 29.9622 23.2029C29.9622 26.1732 32.2508 27.9772 34.8597 27.9772C35.8962 27.9772 36.6874 27.7311 36.9758 27.649V25.1745C36.8761 25.23 36.1174 25.6637 35.0261 25.6637C33.4799 25.6637 32.4826 24.573 32.4826 23.2029C32.4826 21.7912 33.523 20.7441 35.0261 20.7441C36.1361 20.7441 36.8824 21.1874 36.9758 21.2363" fill="#00BCEB"/>
<path fill-rule="evenodd" clip-rule="evenodd" d="M45.0086 18.4314C42.18 18.4314 40.1514 20.57 40.1514 23.2029C40.1514 25.8401 42.18 27.9772 45.0086 27.9772C47.837 27.9772 49.8686 25.8401 49.8686 23.2029C49.8686 20.57 47.837 18.4314 45.0086 18.4314ZM47.4089 23.2029C47.4089 24.5442 46.384 25.6294 45.0086 25.6294C43.6318 25.6294 42.6095 24.5442 42.6095 23.2029C42.6095 21.8644 43.6318 20.7787 45.0086 20.7787C46.384 20.7787 47.4089 21.8644 47.4089 23.2029Z" fill="#00BCEB"/>
<path d="M14.9619 1.16889C14.9619 0.533487 14.4441 0.0181885 13.8095 0.0181885C13.1751 0.0181885 12.6573 0.533487 12.6573 1.16889V13.4103C12.6573 14.0494 13.1751 14.5644 13.8095 14.5644C14.4441 14.5644 14.9619 14.0494 14.9619 13.4103V1.16889ZM8.63295 5.51429C8.63295 4.87914 8.11544 4.3631 7.48081 4.3631C6.84618 4.3631 6.32867 4.87914 6.32867 5.51429V11.1106C6.32867 11.7495 6.84618 12.2647 7.48081 12.2647C8.11544 12.2647 8.63295 11.7495 8.63295 11.1106V5.51429ZM2.30428 8.69057C2.30428 8.05517 1.78677 7.54012 1.15214 7.54012C0.518241 7.54012 0 8.05517 0 8.69057V11.1106C0 11.7495 0.518241 12.2647 1.15214 12.2647C1.78677 12.2647 2.30428 11.7495 2.30428 11.1106" fill="#00BCEB"/>
<path d="M12.6573 1.16889C12.6573 0.533487 13.1751 0.0181885 13.8097 0.0181885C14.4441 0.0181885 14.9618 0.533487 14.9618 1.16889V13.4103C14.9618 14.0494 14.4441 14.5644 13.8097 14.5644C13.1751 14.5644 12.6573 14.0494 12.6573 13.4103V1.16889ZM18.9862 5.51429C18.9862 4.87914 19.5037 4.3631 20.1384 4.3631C20.773 4.3631 21.2905 4.87914 21.2905 5.51429V11.1106C21.2905 11.7495 20.773 12.2647 20.1384 12.2647C19.5037 12.2647 18.9862 11.7495 18.9862 11.1106V5.51429ZM25.3149 8.69057C25.3149 8.05517 25.8324 7.54012 26.467 7.54012C27.1009 7.54012 27.6192 8.05517 27.6192 8.69057V11.1106C27.6192 11.7495 27.1009 12.2647 26.467 12.2647C25.8324 12.2647 25.3149 11.7495 25.3149 11.1106" fill="#00BCEB"/>
<path d="M37.9649 1.16889C37.9649 0.533487 38.4827 0.0181885 39.1173 0.0181885C39.7517 0.0181885 40.2694 0.533487 40.2694 1.16889V13.4103C40.2694 14.0494 39.7517 14.5644 39.1173 14.5644C38.4827 14.5644 37.9649 14.0494 37.9649 13.4103V1.16889ZM44.2938 5.51429C44.2938 4.87914 44.8113 4.3631 45.446 4.3631C46.0806 4.3631 46.5981 4.87914 46.5981 5.51429V11.1106C46.5981 11.7495 46.0806 12.2647 45.446 12.2647C44.8113 12.2647 44.2938 11.7495 44.2938 11.1106V5.51429ZM50.6225 8.69057C50.6225 8.05517 51.14 7.54012 51.7747 7.54012C52.4085 7.54012 52.9268 8.05517 52.9268 8.69057V11.1106C52.9268 11.7495 52.4085 12.2647 51.7747 12.2647C51.14 12.2647 50.6225 11.7495 50.6225 11.1106" fill="#00BCEB"/>
<path d="M40.2695 1.16889C40.2695 0.533487 39.7517 0.0181885 39.1171 0.0181885C38.4827 0.0181885 37.965 0.533487 37.965 1.16889V13.4103C37.965 14.0494 38.4827 14.5644 39.1171 14.5644C39.7517 14.5644 40.2695 14.0494 40.2695 13.4103V1.16889ZM33.9406 5.51429C33.9406 4.87914 33.4231 4.3631 32.7884 4.3631C32.1538 4.3631 31.6363 4.87914 31.6363 5.51429V11.1106C31.6363 11.7495 32.1538 12.2647 32.7884 12.2647C33.4231 12.2647 33.9406 11.7495 33.9406 11.1106V5.51429ZM27.6119 8.69057C27.6119 8.05517 27.0944 7.54012 26.4598 7.54012C25.8259 7.54012 25.3076 8.05517 25.3076 8.69057V11.1106C25.3076 11.7495 25.8259 12.2647 26.4598 12.2647C27.0944 12.2647 27.6119 11.7495 27.6119 11.1106" fill="#00BCEB"/>
</g>
<defs>
<clipPath id="clip0_85_18859">
<rect width="52.9268" height="28" fill="white"/>
</clipPath>
</defs>
</svg>
